{
	"asset": {
		"generator": "Unity 2020.3.11f1",
		"extras": {
			"exporterVersion" : "2.2.1"
		},
		"version": "2.0"
	},
	"accessors": [
		{
			"bufferView": 2,
			"byteOffset": 0,
			"componentType": 5126,
			"count": 120,
			"max": [ 0.02794128, 0.3054685, 0.3054684 ],
			"min": [ -0.02794128, -0.3054685, -0.3054684 ],
			"type": "VEC3"
		},
		{
			"bufferView": 2,
			"byteOffset": 1440,
			"componentType": 5126,
			"count": 120,
			"max": [ 1, 1, 1 ],
			"min": [ -1, -1, -1 ],
			"type": "VEC3"
		},
		{
			"bufferView": 1,
			"byteOffset": 0,
			"componentType": 5126,
			"count": 120,
			"max": [ 1.253293, 0.7646478 ],
			"min": [ 0.4868073, 0.01729212 ],
			"type": "VEC2"
		},
		{
			"bufferView": 3,
			"byteOffset": 0,
			"componentType": 5126,
			"count": 120,
			"max": [ 1, 0.7071086, 1, 1 ],
			"min": [ -1, -0.7071073, -1, 1 ],
			"type": "VEC4"
		},
		{
			"bufferView": 0,
			"byteOffset": 0,
			"componentType": 5123,
			"count": 144,
			"max": [ 95 ],
			"min": [ 0 ],
			"type": "SCALAR"
		},
		{
			"bufferView": 0,
			"byteOffset": 288,
			"componentType": 5123,
			"count": 36,
			"max": [ 119 ],
			"min": [ 96 ],
			"type": "SCALAR"
		}
	],
	"buffers": [
		{
			"byteLength": 6120,
			"uri": "entity18580.bin"
		}
	],
	"bufferViews": [
		{
			"buffer": 0,
			"byteLength": 360,
			"target": 34963,
			"byteOffset": 5760
		},
		{
			"buffer": 0,
			"byteLength": 960,
			"target": 34962,
			"byteStride": 8,
			"byteOffset": 0
		},
		{
			"buffer": 0,
			"byteLength": 2880,
			"target": 34962,
			"byteStride": 12,
			"byteOffset": 960
		},
		{
			"buffer": 0,
			"byteLength": 1920,
			"target": 34962,
			"byteStride": 16,
			"byteOffset": 3840
		}
	],
	"images": [
		{
			"uri": "Assets/Visuals/Materials/Textures/Iron_Atlas_Albedo.png"
		},
		{
			"uri": "Assets/Visuals/Materials/Textures/Iron_Atlas_Metallic_converted_metalRoughness.jpg"
		},
		{
			"uri": "Assets/Visuals/Materials/Textures/Buttons_Albedo.png"
		}
	],
	"materials": [
		{
			"pbrMetallicRoughness": {
				"baseColorTexture" : {
					"index" : 0,
					"texCoord" : 0
				},
				"baseColorFactor": [1, 1, 1, 1],
				"metallicRoughnessTexture" : {
					"index" : 1,
					"texCoord" : 0
				},
				"metallicFactor": 1,
				"roughnessFactor": 1
			},
			"emissiveFactor": [0, 0, 0],
			"doubleSided": false,
			"name": "Iron_Atlas_Mat"
		},
		{
			"pbrMetallicRoughness": {
				"baseColorTexture" : {
					"index" : 2,
					"texCoord" : 0
				},
				"baseColorFactor": [1, 1, 1, 1],
				"metallicFactor": 0,
				"roughnessFactor": 1
			},
			"alphaMode": "BLEND",
			"alphaCutoff": 0.5,
			"emissiveTexture" : {
				"index" : 2,
				"texCoord" : 0
			},
			"emissiveFactor": [0.2401494, 0.2401494, 0.2401494],
			"doubleSided": false,
			"name": "Buttons_Mat"
		}
	],
	"meshes": [
		{
			"name": "mesh_Social_Connection_6_Podcast_22196Social_Connection_6_Podcast",
			"primitives": [
				{
					"attributes": {
						"POSITION": 0,
						"NORMAL": 1,
						"TEXCOORD_0": 2,
						"TANGENT": 3
					},
					"indices": 4,
					"material": 0,
					"mode": 4
				},
				{
					"attributes": {
						"POSITION": 0,
						"NORMAL": 1,
						"TEXCOORD_0": 2,
						"TANGENT": 3
					},
					"indices": 5,
					"material": 1,
					"mode": 4
				}
			]
		}
	],
	"nodes": [
		{
			"name": "UnityGlTF_root",
			"children": [
				1
			]
		},
		{
			"name": "node_Social_Connection_6_Podcast",
			"mesh": 0,
			"matrix": [1, 0, 0, 0, 0, 1, 0, 0, 0, 0, 1, 0, 0, 0, 0, 1]
		}
	],
	"samplers": [
		{
			"magFilter": 9729,
			"minFilter": 9985,
			"wrapS": 10497,
			"wrapT": 10497
		}
	],
	"scenes": [
		{
			"name":"defaultScene",
			"nodes": [
				0
			]
		}
	],
	"scene": 0,
	"textures": [
		{
			"sampler": 0,
			"source": 0
		},
		{
			"sampler": 0,
			"source": 1
		},
		{
			"sampler": 0,
			"source": 2
		}
	]
}